<?xml version="1.0" encoding="UTF-8"?>
<!--Generator: Apple Native CoreSVG 341-->
<!DOCTYPE svg
PUBLIC "-//W3C//DTD SVG 1.1//EN"
       "http://www.w3.org/Graphics/SVG/1.1/DTD/svg11.dtd">
<svg version="1.1" xmlns="http://www.w3.org/2000/svg" xmlns:xlink="http://www.w3.org/1999/xlink" viewBox="0 0 3300 2200">
 <!--glyph: "", point size: 100.0, font version: "21.1d1e1", template writer version: "138.0.0"-->
 <style>.defaults {-sfsymbols-wiggle-style:clockwise;-sfsymbols-rotates-clockwise:true;-sfsymbols-draw-reverses-motion-groups:true}

.monochrome-0 {-sfsymbols-motion-group:1;-sfsymbols-always-rotates:true;-sfsymbols-layer-tags:-691828257913968d _enclosure.stroke arrow.trianglehead.2.clockwise.rotate.90;-sfsymbols-clipstroke-attachments:1 4 0 3 0 2,1 4 0 1 1 0}
.monochrome-1 {-sfsymbols-motion-group:0;-sfsymbols-always-pulses:true;-sfsymbols-layer-tags:-691828257913968d 10652927cdd9e3be cloud.fill}

.multicolor-0:tintColor {-sfsymbols-motion-group:1;-sfsymbols-always-rotates:true;-sfsymbols-layer-tags:-691828257913968d _enclosure.stroke arrow.trianglehead.2.clockwise.rotate.90;-sfsymbols-clipstroke-attachments:1 4 0 3 0 2,1 4 0 1 1 0}
.multicolor-1:tintColor {-sfsymbols-motion-group:0;-sfsymbols-always-pulses:true;-sfsymbols-layer-tags:-691828257913968d 10652927cdd9e3be cloud.fill}

.hierarchical-0:secondary {-sfsymbols-motion-group:1;-sfsymbols-always-rotates:true;-sfsymbols-layer-tags:-691828257913968d _enclosure.stroke arrow.trianglehead.2.clockwise.rotate.90;-sfsymbols-clipstroke-attachments:1 4 0 3 0 2,1 4 0 1 1 0}
.hierarchical-1:primary {-sfsymbols-motion-group:0;-sfsymbols-always-pulses:true;-sfsymbols-layer-tags:-691828257913968d 10652927cdd9e3be cloud.fill}

.SFSymbolsPreviewWireframe {fill:none;opacity:1.0;stroke:black;stroke-width:0.5}
</style>
 <g id="Notes">
  <rect height="2200" id="artboard" style="fill:white;opacity:1" width="3300" x="0" y="0"/>
  <line style="fill:none;stroke:black;opacity:1;stroke-width:0.5;" x1="263" x2="3036" y1="292" y2="292"/>
  <text style="stroke:none;fill:black;font-family:sans-serif;font-size:13;font-weight:bold;" transform="matrix(1 0 0 1 263 322)">Weight/Scale Variations</text>
  <text style="stroke:none;fill:black;font-family:sans-serif;font-size:13;text-anchor:middle;" transform="matrix(1 0 0 1 559.711 322)">Ultralight</text>
  <text style="stroke:none;fill:black;font-family:sans-serif;font-size:13;text-anchor:middle;" transform="matrix(1 0 0 1 856.422 322)">Thin</text>
  <text style="stroke:none;fill:black;font-family:sans-serif;font-size:13;text-anchor:middle;" transform="matrix(1 0 0 1 1153.13 322)">Light</text>
  <text style="stroke:none;fill:black;font-family:sans-serif;font-size:13;text-anchor:middle;" transform="matrix(1 0 0 1 1449.84 322)">Regular</text>
  <text style="stroke:none;fill:black;font-family:sans-serif;font-size:13;text-anchor:middle;" transform="matrix(1 0 0 1 1746.56 322)">Medium</text>
  <text style="stroke:none;fill:black;font-family:sans-serif;font-size:13;text-anchor:middle;" transform="matrix(1 0 0 1 2043.27 322)">Semibold</text>
  <text style="stroke:none;fill:black;font-family:sans-serif;font-size:13;text-anchor:middle;" transform="matrix(1 0 0 1 2339.98 322)">Bold</text>
  <text style="stroke:none;fill:black;font-family:sans-serif;font-size:13;text-anchor:middle;" transform="matrix(1 0 0 1 2636.69 322)">Heavy</text>
  <text style="stroke:none;fill:black;font-family:sans-serif;font-size:13;text-anchor:middle;" transform="matrix(1 0 0 1 2933.4 322)">Black</text>
  <line style="fill:none;stroke:black;opacity:1;stroke-width:0.5;" x1="263" x2="3036" y1="1903" y2="1903"/>
  <g transform="matrix(0.2 0 0 0.2 263 1933)">
   <path d="m46.2402 4.15039c21.7773 0 39.4531-17.627 39.4531-39.4043s-17.6758-39.4043-39.4531-39.4043c-21.7285 0-39.4043 17.627-39.4043 39.4043s17.6758 39.4043 39.4043 39.4043Zm0-7.42188c-17.6758 0-31.9336-14.3066-31.9336-31.9824s14.2578-31.9824 31.9336-31.9824 31.9824 14.3066 31.9824 31.9824-14.3066 31.9824-31.9824 31.9824Zm3.61328-17.7734v-28.4668c0-2.24609-1.46484-3.75977-3.71094-3.75977-2.14844 0-3.61328 1.51367-3.61328 3.75977v28.4668c0 2.19727 1.46484 3.71094 3.61328 3.71094 2.24609 0 3.71094-1.51367 3.71094-3.71094Zm-17.8223-10.5957h28.418c2.19727 0 3.71094-1.46484 3.71094-3.61328 0-2.19727-1.51367-3.71094-3.71094-3.71094h-28.418c-2.24609 0-3.75977 1.51367-3.75977 3.71094 0 2.14844 1.51367 3.61328 3.75977 3.61328Z"/>
  </g>
  <g transform="matrix(0.2 0 0 0.2 281.506 1933)">
   <path d="m58.5449 14.5508c27.4902 0 49.8047-22.3145 49.8047-49.8047s-22.3145-49.8047-49.8047-49.8047-49.8047 22.3145-49.8047 49.8047 22.3145 49.8047 49.8047 49.8047Zm0-8.30078c-22.9492 0-41.5039-18.5547-41.5039-41.5039s18.5547-41.5039 41.5039-41.5039 41.5039 18.5547 41.5039 41.5039-18.5547 41.5039-41.5039 41.5039Zm4.05273-23.0957v-36.9141c0-2.49023-1.70898-4.19922-4.15039-4.19922-2.39258 0-4.05273 1.70898-4.05273 4.19922v36.9141c0 2.44141 1.66016 4.15039 4.05273 4.15039 2.44141 0 4.15039-1.66016 4.15039-4.15039Zm-22.5586-14.4043h36.9629c2.44141 0 4.15039-1.61133 4.15039-4.00391 0-2.44141-1.70898-4.15039-4.15039-4.15039h-36.9629c-2.49023 0-4.15039 1.70898-4.15039 4.15039 0 2.39258 1.66016 4.00391 4.15039 4.00391Z"/>
  </g>
  <g transform="matrix(0.2 0 0 0.2 304.924 1933)">
   <path d="m74.8535 28.3203c35.1074 0 63.623-28.4668 63.623-63.5742s-28.5156-63.623-63.623-63.623-63.5742 28.5156-63.5742 63.623 28.4668 63.5742 63.5742 63.5742Zm0-9.08203c-30.127 0-54.4922-24.3652-54.4922-54.4922s24.3652-54.4922 54.4922-54.4922 54.4922 24.3652 54.4922 54.4922-24.3652 54.4922-54.4922 54.4922Zm4.44336-30.3223v-48.4863c0-2.73438-1.85547-4.63867-4.54102-4.63867-2.58789 0-4.44336 1.9043-4.44336 4.63867v48.4863c0 2.68555 1.85547 4.58984 4.44336 4.58984 2.68555 0 4.54102-1.85547 4.54102-4.58984Zm-28.7109-19.7754h48.4863c2.68555 0 4.58984-1.80664 4.58984-4.39453 0-2.73438-1.85547-4.58984-4.58984-4.58984h-48.4863c-2.73438 0-4.58984 1.85547-4.58984 4.58984 0 2.58789 1.85547 4.39453 4.58984 4.39453Z"/>
  </g>
  <text style="stroke:none;fill:black;font-family:sans-serif;font-size:13;font-weight:bold;" transform="matrix(1 0 0 1 263 1953)">Design Variations</text>
  <text style="stroke:none;fill:black;font-family:sans-serif;font-size:13;" transform="matrix(1 0 0 1 263 1971)">Symbols are supported in up to nine weights and three scales.</text>
  <text style="stroke:none;fill:black;font-family:sans-serif;font-size:13;" transform="matrix(1 0 0 1 263 1989)">For optimal layout with text and other symbols, vertically align</text>
  <text style="stroke:none;fill:black;font-family:sans-serif;font-size:13;" transform="matrix(1 0 0 1 263 2007)">symbols with the adjacent text.</text>
  <line style="fill:none;stroke:#00AEEF;stroke-width:0.5;opacity:1.0;" x1="776" x2="776" y1="1919" y2="1933"/>
  <g transform="matrix(0.2 0 0 0.2 776 1933)">
   <path d="m16.5527 0.78125c2.58789 0 3.85742-0.976562 4.78516-3.71094l20.5566-57.5195h0.244141l20.6055 57.5195c0.927734 2.73438 2.19727 3.71094 4.73633 3.71094 2.58789 0 4.24805-1.5625 4.24805-4.00391 0-0.830078-0.146484-1.61133-0.537109-2.63672l-22.9004-60.9863c-1.12305-2.97852-3.125-4.49219-6.25-4.49219-3.02734 0-5.07812 1.46484-6.15234 4.44336l-22.9004 61.084c-0.390625 1.02539-0.537109 1.80664-0.537109 2.63672 0 2.44141 1.5625 3.95508 4.10156 3.95508Zm10.2051-20.9473h30.6641c2.00195 0 3.66211-1.66016 3.66211-3.66211 0-2.05078-1.66016-3.66211-3.66211-3.66211h-30.6641c-2.00195 0-3.66211 1.61133-3.66211 3.66211 0 2.00195 1.66016 3.66211 3.66211 3.66211Z"/>
  </g>
  <line style="fill:none;stroke:#00AEEF;stroke-width:0.5;opacity:1.0;" x1="792.836" x2="792.836" y1="1919" y2="1933"/>
  <text style="stroke:none;fill:black;font-family:sans-serif;font-size:13;font-weight:bold;" transform="matrix(1 0 0 1 776 1953)">Margins</text>
  <text style="stroke:none;fill:black;font-family:sans-serif;font-size:13;" transform="matrix(1 0 0 1 776 1971)">Leading and trailing margins on the left and right side of each symbol</text>
  <text style="stroke:none;fill:black;font-family:sans-serif;font-size:13;" transform="matrix(1 0 0 1 776 1989)">can be adjusted by modifying the x-location of the margin guidelines.</text>
  <text style="stroke:none;fill:black;font-family:sans-serif;font-size:13;" transform="matrix(1 0 0 1 776 2007)">Modifications are automatically applied proportionally to all</text>
  <text style="stroke:none;fill:black;font-family:sans-serif;font-size:13;" transform="matrix(1 0 0 1 776 2025)">scales and weights.</text>
  <g transform="matrix(0.2 0 0 0.2 1289 1933)">
   <path d="m14.209 13.1348 7.86133 7.86133c4.29688 4.39453 9.32617 4.10156 13.8672-1.02539l60.6934-68.2129-4.88281-4.88281-60.2539 67.6758c-1.80664 1.95312-3.4668 2.44141-5.81055 0.0976562l-5.17578-5.12695c-2.29492-2.29492-1.80664-3.95508 0.195312-5.81055l67.4805-62.1582-4.88281-4.83398-68.0664 62.5977c-4.98047 4.58984-5.32227 9.47266-1.02539 13.8184Zm44.873-97.4609c-2.05078 2.00195-2.24609 4.88281-1.07422 6.78711 1.12305 1.80664 3.4668 3.02734 6.5918 2.24609 5.85938-1.66016 12.5977-2.39258 18.8965 0.927734l-2.68555 7.12891c-1.61133 4.00391-0.732422 6.88477 1.70898 9.42383l10.2539 10.3027c2.34375 2.39258 4.54102 2.44141 7.08008 1.95312l4.44336-0.732422 2.58789 2.53906-0.195312 2.24609c-0.0976562 2.29492 0.537109 4.29688 2.7832 6.49414l3.36914 3.32031c2.29492 2.29492 5.51758 2.49023 7.8125 0.195312l12.9883-13.0371c2.29492-2.34375 2.14844-5.37109-0.195312-7.66602l-3.41797-3.41797c-2.19727-2.19727-4.05273-3.02734-6.34766-2.88086l-2.34375 0.244141-2.44141-2.44141 1.02539-4.6875c0.634766-2.73438-0.244141-4.98047-2.88086-7.61719l-11.2793-11.1816c-12.9395-12.8418-35.5957-11.0352-46.6797-0.146484Zm7.08008 2.05078c8.78906-6.39648 25.9766-5.66406 33.6914 1.95312l12.3047 12.207c1.02539 1.02539 1.2207 1.80664 0.927734 3.32031l-1.46484 6.64062 6.73828 6.68945 4.39453-0.244141c1.12305-0.0488281 1.51367 0.0488281 2.34375 0.878906l2.53906 2.49023-10.8398 10.8398-2.49023-2.49023c-0.830078-0.878906-0.976562-1.2207-0.927734-2.39258l0.292969-4.3457-6.68945-6.73828-6.83594 1.17188c-1.41602 0.292969-2.05078 0.195312-3.17383-0.878906l-8.93555-8.88672c-1.07422-1.02539-1.17188-1.70898-0.488281-3.36914l4.58984-11.4746c-6.10352-6.34766-17.041-7.51953-25.5859-4.58984-0.683594 0.244141-0.927734-0.390625-0.390625-0.78125Z"/>
  </g>
  <text style="stroke:none;fill:black;font-family:sans-serif;font-size:13;font-weight:bold;" transform="matrix(1 0 0 1 1289 1953)">Exporting</text>
  <text style="stroke:none;fill:black;font-family:sans-serif;font-size:13;" transform="matrix(1 0 0 1 1289 1971)">Symbols should be outlined when exporting to ensure the</text>
  <text style="stroke:none;fill:black;font-family:sans-serif;font-size:13;" transform="matrix(1 0 0 1 1289 1989)">design is preserved when submitting to Xcode.</text>
  <text id="template-version" style="stroke:none;fill:black;font-family:sans-serif;font-size:13;text-anchor:end;" transform="matrix(1 0 0 1 3036 1933)">Template v.7.0</text>
  <text style="stroke:none;fill:black;font-family:sans-serif;font-size:13;text-anchor:end;" transform="matrix(1 0 0 1 3036 1951)">Requires Xcode 26 or greater</text>
  <text id="descriptive-name" style="stroke:none;fill:black;font-family:sans-serif;font-size:13;text-anchor:end;" transform="matrix(1 0 0 1 3036 1969)">Generated from arrow.trianglehead.2.clockwise.rotate.90</text>
  <text style="stroke:none;fill:black;font-family:sans-serif;font-size:13;text-anchor:end;" transform="matrix(1 0 0 1 3036 1987)">Typeset at 100.0 points</text>
  <text style="stroke:none;fill:black;font-family:sans-serif;font-size:13;" transform="matrix(1 0 0 1 263 726)">Small</text>
  <text style="stroke:none;fill:black;font-family:sans-serif;font-size:13;" transform="matrix(1 0 0 1 263 1156)">Medium</text>
  <text style="stroke:none;fill:black;font-family:sans-serif;font-size:13;" transform="matrix(1 0 0 1 263 1586)">Large</text>
 </g>
 <g id="Guides">
  <g id="H-reference" style="fill:#27AAE1;stroke:none;" transform="matrix(1 0 0 1 339 696)">
   <path d="M0.993654 0L3.63775 0L29.3281-67.1323L30.0303-67.1323L30.0303-70.459L28.1226-70.459ZM11.6885-24.4799L46.9815-24.4799L46.2315-26.7285L12.4385-26.7285ZM55.1196 0L57.7637 0L30.6382-70.459L29.4326-70.459L29.4326-67.1323Z"/>
  </g>
  <line id="Baseline-S" style="fill:none;stroke:#27AAE1;opacity:1;stroke-width:0.5;" x1="263" x2="3036" y1="696" y2="696"/>
  <line id="Capline-S" style="fill:none;stroke:#27AAE1;opacity:1;stroke-width:0.5;" x1="263" x2="3036" y1="625.541" y2="625.541"/>
  <g id="H-reference" style="fill:#27AAE1;stroke:none;" transform="matrix(1 0 0 1 339 1126)">
   <path d="M0.993654 0L3.63775 0L29.3281-67.1323L30.0303-67.1323L30.0303-70.459L28.1226-70.459ZM11.6885-24.4799L46.9815-24.4799L46.2315-26.7285L12.4385-26.7285ZM55.1196 0L57.7637 0L30.6382-70.459L29.4326-70.459L29.4326-67.1323Z"/>
  </g>
  <line id="Baseline-M" style="fill:none;stroke:#27AAE1;opacity:1;stroke-width:0.5;" x1="263" x2="3036" y1="1126" y2="1126"/>
  <line id="Capline-M" style="fill:none;stroke:#27AAE1;opacity:1;stroke-width:0.5;" x1="263" x2="3036" y1="1055.54" y2="1055.54"/>
  <g id="H-reference" style="fill:#27AAE1;stroke:none;" transform="matrix(1 0 0 1 339 1556)">
   <path d="M0.993654 0L3.63775 0L29.3281-67.1323L30.0303-67.1323L30.0303-70.459L28.1226-70.459ZM11.6885-24.4799L46.9815-24.4799L46.2315-26.7285L12.4385-26.7285ZM55.1196 0L57.7637 0L30.6382-70.459L29.4326-70.459L29.4326-67.1323Z"/>
  </g>
  <line id="Baseline-L" style="fill:none;stroke:#27AAE1;opacity:1;stroke-width:0.5;" x1="263" x2="3036" y1="1556" y2="1556"/>
  <line id="Capline-L" style="fill:none;stroke:#27AAE1;opacity:1;stroke-width:0.5;" x1="263" x2="3036" y1="1485.54" y2="1485.54"/>
  <line id="right-margin-Black-S" style="fill:none;stroke:#00AEEF;stroke-width:0.5;opacity:1.0;" x1="2982.23" x2="2982.23" y1="600.785" y2="720.121"/>
  <line id="left-margin-Black-S" style="fill:none;stroke:#00AEEF;stroke-width:0.5;opacity:1.0;" x1="2884.57" x2="2884.57" y1="600.785" y2="720.121"/>
  <line id="right-margin-Regular-S" style="fill:none;stroke:#FF3B30;stroke-width:0.5;opacity:1.0;" x1="1496.11" x2="1496.11" y1="600.785" y2="720.121"/>
  <line id="left-margin-Regular-S" style="fill:none;stroke:#FF3B30;stroke-width:0.5;opacity:1.0;" x1="1403.58" x2="1403.58" y1="600.785" y2="720.121"/>
  <line id="right-margin-Ultralight-S" style="fill:none;stroke:#FF3B30;stroke-width:0.5;opacity:1.0;" x1="603.751" x2="603.751" y1="600.785" y2="720.121"/>
  <line id="left-margin-Ultralight-S" style="fill:none;stroke:#FF3B30;stroke-width:0.5;opacity:1.0;" x1="515.672" x2="515.672" y1="600.785" y2="720.121"/>
 </g>
 <g id="Symbols">
  <g id="Black-S" transform="matrix(1 0 0 1 2884.57 696)">
   <path class="monochrome-0 multicolor-0:tintColor hierarchical-0:secondary SFSymbolsPreviewWireframe" d="M93.7988-44.4824L73.0469-44.4824C69.7266-44.4824 68.9453-41.0645 70.7031-38.8184L81.1523-25.5859C82.3242-24.1211 84.5703-24.1211 85.6934-25.5859L96.1914-38.8184C97.998-41.0645 97.168-44.4824 93.7988-44.4824ZM48.8281-63.0859C64.209-63.0859 76.6602-50.6348 76.6602-35.1562C76.6602-31.25 79.834-28.0762 83.7402-28.0762C87.6465-28.0762 90.8203-31.25 90.8203-35.1562C90.8203-58.4473 72.0215-77.2461 48.8281-77.2461C40.625-77.2461 33.0566-74.9023 26.6602-70.9473C22.6074-68.4082 22.4609-63.8672 24.5117-60.8398C26.416-58.1055 30.2246-56.5918 34.7168-59.2285C38.8184-61.6699 43.6523-63.0859 48.8281-63.0859ZM3.85742-26.0254L24.6094-26.0254C27.9297-26.0254 28.7109-29.4434 26.9531-31.6895L16.5039-44.9219C15.332-46.3867 13.0859-46.3867 11.9629-44.9219L1.46484-31.6895C-0.341797-29.4434 0.488281-26.0254 3.85742-26.0254ZM48.8281-7.42188C33.4473-7.42188 20.9961-19.873 20.9961-35.3516C20.9961-39.2578 17.8223-42.4316 13.916-42.4316C10.0098-42.4316 6.83594-39.2578 6.83594-35.3516C6.83594-12.0605 25.6348 6.73828 48.8281 6.73828C57.0312 6.73828 64.5996 4.39453 70.9961 0.439453C75.0488-2.09961 75.1953-6.64062 73.1445-9.66797C71.2402-12.4023 67.4316-13.916 62.9395-11.2793C58.8379-8.83789 54.0039-7.42188 48.8281-7.42188Z" data-clipstroke-keyframes="0 0 0 1.8038383 1.9231013 0 0.26964778 1.000233 1.6829717 0 1 1.2270925 1.3420144 0 0 3.9231014 3.7988195 0 0.26211506 3.000233 3.6829717 0 1 3.2270925 3.3420143"/>
   <path class="monochrome-1 multicolor-1:tintColor hierarchical-1:primary SFSymbolsPreviewWireframe" d="M35.3003-18.5707L61.482-18.5707C69.0655-18.5707 74.9348-24.3529 74.9348-31.8718C74.9348-39.4869 69.3025-45.4786 61.5583-45.4831C58.724-50.8384 53.8741-53.4766 47.3173-53.4766C39.0889-53.4766 32.3324-48.0296 30.8559-39.6943C26.2633-37.9732 23.7007-34.1634 23.7007-29.6918C23.7007-23.2144 28.6592-18.5707 35.3003-18.5707Z"/>
  </g>
  <g id="Regular-S" transform="matrix(1 0 0 1 1403.58 696)">
   <path class="monochrome-0 multicolor-0:tintColor hierarchical-0:secondary SFSymbolsPreviewWireframe" d="M90.1855-42.627L72.3633-42.627C69.3359-42.627 68.6035-40.5273 70.2148-38.2324L78.9062-25.8301C80.2246-23.9258 82.2754-23.877 83.6426-25.8301L92.334-38.1836C93.9941-40.5273 93.2129-42.627 90.1855-42.627ZM46.2402-67.2363C63.916-67.2363 78.2227-52.9297 78.2227-35.2539C78.2227-33.252 79.9316-31.543 81.9824-31.543C83.9844-31.543 85.6445-33.2031 85.6934-35.2051C85.6445-57.0801 68.0176-74.6582 46.2402-74.6582C34.668-74.6582 24.2188-69.6777 17.041-61.7188C15.1855-59.668 15.8691-57.1289 17.4805-55.9082C18.8965-54.9316 20.8008-54.7852 22.6074-56.7871C28.4668-63.1836 36.8652-67.2363 46.2402-67.2363ZM2.34375-27.8809L20.1172-27.8809C23.1445-27.8809 23.9258-29.9805 22.3145-32.2754L13.623-44.6777C12.3047-46.582 10.2539-46.6309 8.88672-44.6777L0.195312-32.3242C-1.46484-29.9805-0.732422-27.8809 2.34375-27.8809ZM46.2402-3.27148C28.5645-3.27148 14.3066-17.5781 14.3066-35.2539C14.3066-37.2559 12.5977-38.9648 10.5469-38.9648C8.54492-38.9648 6.88477-37.3047 6.83594-35.3027C6.88477-13.4277 24.5117 4.15039 46.2402 4.15039C57.8613 4.15039 68.2617-0.830078 75.4883-8.78906C77.2949-10.8398 76.6602-13.3789 75-14.5996C73.6328-15.5762 71.7285-15.7227 69.9219-13.7207C64.0625-7.32422 55.6152-3.27148 46.2402-3.27148Z" data-clipstroke-keyframes="0 0 0 1.8006306 1.863751 0 0.3577099 1.0002645 1.6325443 0 1 1.2570207 1.3164624 0 0 3.863506 3.8005838 0 0.35826433 3.0002646 3.632257 0 1 3.2568946 3.3163457"/>
   <path class="monochrome-1 multicolor-1:tintColor hierarchical-1:primary SFSymbolsPreviewWireframe" d="M33.0849-19.3998L58.4882-19.3998C65.4451-19.3998 70.8303-24.6783 70.8303-31.5259C70.8303-38.4556 65.4456-43.7381 58.1502-43.7258C55.4866-48.8893 50.6813-51.7484 44.6943-51.7484C36.8575-51.7484 30.3457-46.0776 29.3575-38.2152C25.2197-36.8537 22.6784-33.3066 22.6784-29.1095C22.6784-23.3885 26.9936-19.3998 33.0849-19.3998Z"/>
  </g>
  <g id="Ultralight-S" transform="matrix(1 0 0 1 515.672 696)">
   <path class="monochrome-0 multicolor-0:tintColor hierarchical-0:secondary SFSymbolsPreviewWireframe" d="M88.1421-37.1778L71.7275-37.1778C70.4258-37.1778 69.9204-36.2588 70.8052-35.0083L78.77-23.6504C79.4526-22.6089 80.4136-22.6055 81.145-23.6504L89.0645-35.0049C89.9527-36.2588 89.4439-37.1778 88.1421-37.1778ZM44.0606-70.2334C63.4165-70.2334 79.04-54.6099 79.04-35.2539C79.04-34.6597 79.5684-34.1313 80.166-34.1313C80.7603-34.1313 81.2852-34.6562 81.2886-35.2505C81.2852-55.8086 64.6118-72.4785 44.0606-72.4785C33.0786-72.4785 22.811-67.6343 15.9058-59.6299C15.458-59.0776 15.5513-58.4004 16.0274-57.9971C16.5352-57.5654 17.168-57.6914 17.6123-58.2402C24.1983-65.772 33.732-70.2334 44.0606-70.2334ZM-0.0175595-33.33L16.3482-33.33C17.6499-33.33 18.1587-34.249 17.274-35.4995L9.35453-46.8574C8.62649-47.8989 7.71096-47.9023 6.97951-46.8574L-0.985342-35.5029C-1.82812-34.249-1.36816-33.33-0.0175595-33.33ZM44.0606-0.274438C24.7046-0.274438 9.0391-15.898 9.0391-35.2539C9.0391-35.8482 8.55618-36.3765 7.95852-36.3765C7.31886-36.3765 6.83936-35.8516 6.83594-35.2573C6.83936-14.6992 23.4673 1.97072 44.0606 1.97072C55.0005 1.97072 65.2647-2.87352 72.1734-10.8779C72.6631-11.4302 72.5733-12.1074 72.0484-12.5108C71.5894-12.9424 70.9111-12.8164 70.4668-12.2676C63.9263-4.73586 54.3438-0.274438 44.0606-0.274438Z" data-clipstroke-keyframes="0 0 0 1.8156023 1.835707 0 0.35662445 1.0003108 1.6406857 0 1 1.301581 1.320816 0 0 3.8358777 3.8155913 0 0.35615027 3.000311 3.6408691 0 1 3.3017833 3.3209107"/>
   <path class="monochrome-1 multicolor-1:tintColor hierarchical-1:primary SFSymbolsPreviewWireframe" d="M30.8776-20.7944L56.0189-20.7944C62.2828-20.7944 67.1682-25.529 67.1682-31.5313C67.1682-37.6356 62.0975-42.1804 55.4417-42.156C52.9314-47.2861 48.4585-50.5149 42.5079-50.5149C35.1942-50.5149 29.1444-44.6224 28.524-37.1316C24.7298-36.1049 21.8885-33.048 21.8885-28.929C21.8885-24.3101 25.3186-20.7944 30.8776-20.7944Z"/>
  </g>
 </g>
 <g id="Data">
  <g id="Black-S-draw-attachment-data" data-d="0 1 0 2898.49 660.649 1 0 2968.31 660.843"/>
  <g id="Regular-S-draw-attachment-data" data-d="0 1 0 1414.15 660.749 1 0 1485.54 660.743"/>
  <g id="Ultralight-S-draw-attachment-data" data-d="0 1 0 523.609 660.767 1 0 595.836 660.719"/>
 </g>
</svg>
